<?xml version="1.0" encoding="utf-8"?><svg xmlns="http://www.w3.org/2000/svg" xmlns:xlink="http://www.w3.org/1999/xlink"><symbol viewBox="0 0 24 24" id="arrow_down" xmlns="http://www.w3.org/2000/svg"><path d="M7.41 8.29504L12 12.875L16.59 8.29504L18 9.70504L12 15.705L6 9.70504L7.41 8.29504Z"/></symbol><symbol viewBox="0 0 24 24" id="bag" xmlns="http://www.w3.org/2000/svg"><path d="M18 6H16C16 3.79 14.21 2 12 2C9.79 2 8 3.79 8 6H6C4.9 6 4 6.9 4 8V20C4 21.1 4.9 22 6 22H18C19.1 22 20 21.1 20 20V8C20 6.9 19.1 6 18 6ZM12 4C13.1 4 14 4.9 14 6H10C10 4.9 10.9 4 12 4ZM18 20H6V8H8V10C8 10.55 8.45 11 9 11C9.55 11 10 10.55 10 10V8H14V10C14 10.55 14.45 11 15 11C15.55 11 16 10.55 16 10V8H18V20Z"/></symbol><symbol viewBox="0 0 19 12" id="burger" xmlns="http://www.w3.org/2000/svg"><path d="M0.5 12H18.5V10H0.5V12ZM0.5 7H18.5V5H0.5V7ZM0.5 0V2H18.5V0H0.5Z"/></symbol><symbol viewBox="0 0 24 24" id="card" xmlns="http://www.w3.org/2000/svg"><path d="M11.2232 19.1155L11.2217 19.1142C8.62662 16.7609 6.55384 14.8788 5.1178 13.1231C3.69324 11.3814 3 9.88647 3 8.32495C3 5.79724 4.97228 3.82495 7.5 3.82495C8.93721 3.82495 10.3322 4.49889 11.2386 5.56329L12 6.45735L12.7614 5.56329C13.6678 4.49889 15.0628 3.82495 16.5 3.82495C19.0277 3.82495 21 5.79724 21 8.32495C21 9.88648 20.3068 11.3815 18.882 13.1246C17.4459 14.8815 15.3734 16.7659 12.7786 19.1239C12.7782 19.1242 12.7778 19.1246 12.7775 19.1249L12.0026 19.825L11.2232 19.1155Z" stroke-width="2"/></symbol><symbol viewBox="0 0 25 24" id="close" xmlns="http://www.w3.org/2000/svg"><path d="M19.5 6.41L18.09 5L12.5 10.59L6.91 5L5.5 6.41L11.09 12L5.5 17.59L6.91 19L12.5 13.41L18.09 19L19.5 17.59L13.91 12L19.5 6.41Z"/></symbol><symbol viewBox="0 0 24 24" id="favorite" xmlns="http://www.w3.org/2000/svg"><path d="M11.2232 19.1155L11.2217 19.1142C8.62662 16.7609 6.55384 14.8788 5.1178 13.1231C3.69324 11.3814 3 9.88647 3 8.32495C3 5.79724 4.97228 3.82495 7.5 3.82495C8.93721 3.82495 10.3322 4.49889 11.2386 5.56329L12 6.45735L12.7614 5.56329C13.6678 4.49889 15.0628 3.82495 16.5 3.82495C19.0277 3.82495 21 5.79724 21 8.32495C21 9.88648 20.3068 11.3815 18.882 13.1246C17.4459 14.8815 15.3734 16.7659 12.7786 19.1239C12.7782 19.1242 12.7778 19.1246 12.7775 19.1249L12.0026 19.825L11.2232 19.1155Z" stroke-width="2"/></symbol><symbol viewBox="0 0 24 24" id="person" xmlns="http://www.w3.org/2000/svg"><path d="M18.39 15.06C16.71 14.2 14.53 13.5 12 13.5C9.47 13.5 7.29 14.2 5.61 15.06C4.61 15.57 4 16.6 4 17.72V20.5H20V17.72C20 16.6 19.39 15.57 18.39 15.06ZM18 18.5H6V17.72C6 17.34 6.2 17 6.52 16.84C7.71 16.23 9.63 15.5 12 15.5C14.37 15.5 16.29 16.23 17.48 16.84C17.8 17 18 17.34 18 17.72V18.5Z"/><path d="M12 12.5C14.21 12.5 16 10.71 16 8.5C16 7.13 16 5 16 5C16 4.17 15.33 3.5 14.5 3.5C13.98 3.5 13.52 3.77 13.25 4.17C12.98 3.77 12.52 3.5 12 3.5C11.48 3.5 11.02 3.77 10.75 4.17C10.48 3.77 10.02 3.5 9.5 3.5C8.67 3.5 8 4.17 8 5C8 5 8 7.12 8 8.5C8 10.71 9.79 12.5 12 12.5ZM10 6H14V8.5C14 9.6 13.1 10.5 12 10.5C10.9 10.5 10 9.6 10 8.5V6Z"/></symbol><symbol viewBox="0 0 24 24" id="search" xmlns="http://www.w3.org/2000/svg"><path d="M15.7549 14.255H14.9649L14.6849 13.985C15.6649 12.845 16.2549 11.365 16.2549 9.755C16.2549 6.165 13.3449 3.255 9.75488 3.255C6.16488 3.255 3.25488 6.165 3.25488 9.755C3.25488 13.345 6.16488 16.255 9.75488 16.255C11.3649 16.255 12.8449 15.665 13.9849 14.685L14.2549 14.965V15.755L19.2549 20.745L20.7449 19.255L15.7549 14.255ZM9.75488 14.255C7.26488 14.255 5.25488 12.245 5.25488 9.755C5.25488 7.265 7.26488 5.255 9.75488 5.255C12.2449 5.255 14.2549 7.265 14.2549 9.755C14.2549 12.245 12.2449 14.255 9.75488 14.255Z"/></symbol></svg>