<svg width="180" height="180" viewBox="0 0 180 180" fill="none" xmlns="http://www.w3.org/2000/svg">
<g clip-path="url(#clip0_1_937)">
<circle cx="90" cy="90" r="90" fill="#748C70"/>
<path fill-rule="evenodd" clip-rule="evenodd" d="M59.146 174.572C59.7219 171.946 60.3969 169.375 61.1776 166.864C50.9276 154.479 50.9111 142.483 50.9111 136.52L50.9111 136.509C50.9572 120.077 55.9159 104.77 68.7291 93.655C81.4443 82.6248 101.273 76.2703 129.911 76.2703H154.999C157.208 76.2703 158.999 78.0611 158.999 80.2703V92.7703C158.999 92.8467 158.996 92.9231 158.992 92.9995C157.397 120.796 149.73 140.636 136.854 153.517C123.94 166.437 106.373 171.77 86.2486 171.77H68.0749C67.6055 173.473 67.1843 175.211 66.8098 176.984C64.207 176.292 61.6505 175.486 59.146 174.572ZM77.0767 151.63C74.5658 155.396 72.4672 159.447 70.7475 163.77H86.2486C104.987 163.77 120.233 158.829 131.196 147.861C142.183 136.87 149.455 119.245 150.999 92.6549V84.2703H129.911C102.299 84.2703 84.6717 90.4157 73.9713 99.6981C63.3702 108.894 58.9537 121.711 58.9111 136.526V136.551C58.9111 141.258 58.9111 149.203 64.5282 157.928C66.1956 154.181 68.1506 150.597 70.4203 147.192C77.9117 135.955 88.6877 126.892 103.374 120.365C105.393 119.468 107.757 120.377 108.654 122.396C109.551 124.414 108.642 126.778 106.623 127.676C93.1843 133.648 83.6477 141.773 77.0767 151.63Z" fill="white"/>
</g>
<defs>
<clipPath id="clip0_1_937">
<rect width="180" height="180" fill="white"/>
</clipPath>
</defs>
</svg>
